# xmcd
#
# Track frame offsets: 
#        150
#        17924
#        32048
#        51827
#        66031
#        83553
#        111284
#        129772
#        151924
#        167740
#        185261
#        202712
#        219323
#
# Disc length: 3207 seconds
#
# Revision: 0
# Processed by: cddbd v1.5.2PL0 Copyright (c) Steve Scherf et al.
# Submitted via: ExactAudioCopyFreeDBPlugin 1.0
#
DISCID=9d0c850d
DTITLE=群星 - DTS 天籁之爱3
DYEAR=2010
DGENRE=Acid
TTITLE0=胡琴情缘
TTITLE1=马背族
TTITLE2=让我们回家吧
TTITLE3=我的新郎在草原
TTITLE4=火火的爱
TTITLE5=谁在窗外流泪
TTITLE6=马背上的汉子
TTITLE7=呼伦贝尔的冬天
TTITLE8=草原恋歌
TTITLE9=我爱大草原
TTITLE10=欢迎您到草原来
TTITLE11=绽放
TTITLE12=成吉思汗的传说
EXTD=
EXTT0=
EXTT1=
EXTT2=
EXTT3=
EXTT4=
EXTT5=
EXTT6=
EXTT7=
EXTT8=
EXTT9=
EXTT10=
EXTT11=
EXTT12=
PLAYORDER=
